# xmcd
#
# Track frame offsets: 
#        182
#        27935
#        45227
#        81350
#        100247
#        107075
#        124817
#        140127
#        165355
#        185522
#        186145
#
# Disc length: 2721 seconds
#
# Revision: 1
# Processed by: cddbd v1.5.2PL0 Copyright (c) Steve Scherf et al.
# Submitted via: ExactAudioCopy v0.90b4
#
DISCID=8e0a9f0b
DTITLE=Özdemir Erdogan - Özgün Jazz Denemeleri
DYEAR=1987
DGENRE=Progressive Jazz
TTITLE0=Yemen Elleri
TTITLE1=Timbilli
TTITLE2=Take Five
TTITLE3=Bir Adim Öte
TTITLE4=Acis Takdimi
TTITLE5=Aksam Oldu Hüzünlendim Ben Yine
TTITLE6=Deryalar
TTITLE7=Misget
TTITLE8=Köroglu
TTITLE9=Takdim
TTITLE10=Ayrilik Ümitlerin Ötesinde Bir Sehir
EXTD=YEAR: 1987
EXTT0=
EXTT1=
EXTT2=
EXTT3=
EXTT4=
EXTT5=
EXTT6=
EXTT7=
EXTT8=
EXTT9=
EXTT10=
PLAYORDER=
